<svg width="36" height="44" viewBox="0 0 36 44" fill="none" xmlns="http://www.w3.org/2000/svg">
<g id="Property 1=Variant3">
<g id="Group" opacity="0.3">
<path id="Vector" opacity="0.3" d="M25.1406 8.8632C24.1564 8.86272 23.2126 8.47153 22.5166 7.77557C21.8207 7.07962 21.4295 6.13583 21.429 5.1516V0H4.84383C4.20758 -4.39308e-08 3.57757 0.125341 2.98977 0.368877C2.40198 0.612413 1.86788 0.969366 1.41807 1.41935C0.968259 1.86932 0.611536 2.40352 0.368218 2.9914C0.1249 3.57929 -0.000236101 4.20936 3.3442e-07 4.84561V34.0434C-0.000236101 34.6796 0.1249 35.3097 0.368218 35.8976C0.611536 36.4855 0.968259 37.0197 1.41807 37.4696C1.86788 37.9196 2.40198 38.2766 2.98977 38.5201C3.57757 38.7636 4.20758 38.889 4.84383 38.889H24.7518C25.388 38.889 26.0181 38.7636 26.6058 38.5201C27.1936 38.2766 27.7277 37.9196 28.1775 37.4696C28.6273 37.0197 28.9841 36.4855 29.2274 35.8976C29.4707 35.3097 29.5959 34.6796 29.5956 34.0434V8.865L25.1406 8.8632Z" fill="#5B5B5B"/>
</g>
<path id="Vector_2" d="M29.5956 8.8632H25.1406C24.1563 8.86272 23.2126 8.47153 22.5166 7.77557C21.8206 7.07962 21.4294 6.13583 21.429 5.1516V0L29.5956 8.8632Z" fill="#5B5B5B"/>
<path id="Vector_3" d="M33.1092 30.708H10.602C9.00545 30.708 7.71118 32.0023 7.71118 33.5988V40.3092C7.71118 41.9057 9.00545 43.2 10.602 43.2H33.1092C34.7057 43.2 36 41.9057 36 40.3092V33.5988C36 32.0023 34.7057 30.708 33.1092 30.708Z" fill="#5B5B5B"/>
<path id="Vector_4" d="M15.1596 38.4062V39.7167H13.8042V38.4062H15.1596Z" fill="white"/>
<path id="Vector_5" d="M19.1827 34.3047V38.0019C19.1827 38.5695 19.0285 39.0057 18.7201 39.3105C18.5479 39.4692 18.3456 39.5917 18.1251 39.6705C17.9046 39.7494 17.6705 39.783 17.4367 39.7695C17.1806 39.7832 16.9244 39.7461 16.6828 39.6602C16.4412 39.5743 16.219 39.4414 16.0291 39.2691C15.6823 38.9343 15.5083 38.4543 15.5071 37.8291H16.8013C16.8013 38.3349 16.9939 38.5869 17.3755 38.5869C17.7085 38.5869 17.8741 38.3925 17.8741 38.0055V34.3083L19.1827 34.3047Z" fill="white"/>
<path id="Vector_6" d="M21.3535 37.8183V39.7173H20.0449V34.3047H22.1653C22.8073 34.3047 23.2969 34.4637 23.6341 34.7817C23.8048 34.9489 23.938 35.1504 24.0252 35.3728C24.1124 35.5953 24.1515 35.8337 24.1399 36.0723C24.1448 36.3868 24.0673 36.6971 23.9149 36.9723C23.7582 37.2406 23.5251 37.4562 23.2453 37.5915C22.9083 37.7515 22.5382 37.8292 22.1653 37.8183H21.3535ZM22.8079 36.0723C22.8079 35.5923 22.5451 35.3523 22.0195 35.3523H21.3535V36.7617H22.0195C22.5451 36.7665 22.8079 36.5367 22.8079 36.0723Z" fill="white"/>
<path id="Vector_7" d="M28.9945 34.7404C29.4303 35.0682 29.7235 35.5508 29.8135 36.0886H28.4275C28.3337 35.9003 28.1858 35.7442 28.0027 35.6404C27.7966 35.518 27.5602 35.4556 27.3205 35.4604C27.1344 35.4529 26.9489 35.4863 26.7772 35.5585C26.6055 35.6307 26.4517 35.7398 26.3269 35.878C26.0629 36.1929 25.9285 36.5963 25.9507 37.0066C25.9507 37.5214 26.0821 37.9168 26.3449 38.1928C26.4927 38.3361 26.6688 38.447 26.8619 38.5183C27.055 38.5896 27.2609 38.6197 27.4663 38.6068C27.76 38.6122 28.0475 38.5218 28.2853 38.3494C28.5282 38.1681 28.7036 37.9109 28.7839 37.6186H27.1297V36.6772H29.8783V37.9714C29.7733 38.2936 29.6071 38.5925 29.3887 38.8516C29.1522 39.1309 28.8581 39.3557 28.5265 39.5104C28.1516 39.6836 27.7424 39.7698 27.3295 39.7624C26.8273 39.7756 26.3305 39.6558 25.8895 39.415C25.4861 39.1881 25.1577 38.8485 24.9445 38.4376C24.7155 37.9928 24.601 37.4979 24.6115 36.9976C24.6025 36.5004 24.7169 36.0088 24.9445 35.5666C25.1573 35.1567 25.4843 34.8173 25.8859 34.5892C26.3205 34.3504 26.8104 34.2305 27.3061 34.2418C27.9087 34.2156 28.5029 34.391 28.9945 34.7404Z" fill="white"/>
<path id="Vector_8" d="M18.7741 26.3535H10.8235C10.0452 26.3525 9.29899 26.0429 8.74863 25.4925C8.19826 24.9422 7.88865 24.196 7.8877 23.4176V15.4671C7.88865 14.6887 8.19826 13.9425 8.74863 13.3922C9.29899 12.8418 10.0452 12.5322 10.8235 12.5312H18.7741C19.5523 12.5322 20.2982 12.8419 20.8483 13.3923C21.3984 13.9427 21.7076 14.6889 21.7081 15.4671V23.4176C21.7076 24.1958 21.3984 24.942 20.8483 25.4924C20.2982 26.0428 19.5523 26.3525 18.7741 26.3535ZM10.8235 13.829C10.3892 13.8295 9.97285 14.0023 9.66577 14.3093C9.35868 14.6164 9.18596 15.0328 9.18549 15.4671V23.4176C9.18596 23.8519 9.35868 24.2683 9.66577 24.5754C9.97285 24.8824 10.3892 25.0552 10.8235 25.0556H18.7741C19.2082 25.0552 19.6244 24.8824 19.9312 24.5753C20.238 24.2681 20.4103 23.8518 20.4103 23.4176V15.4671C20.4103 15.0329 20.238 14.6166 19.9312 14.3095C19.6244 14.0023 19.2082 13.8295 18.7741 13.829H10.8235Z" fill="#5B5B5B"/>
<path id="Vector_9" d="M21.0599 21.9053V23.4173C21.0594 24.0235 20.8184 24.6046 20.3898 25.0332C19.9612 25.4618 19.3801 25.7029 18.7739 25.7033H10.8233C10.2171 25.7033 9.63561 25.4625 9.2069 25.0338C8.7782 24.6051 8.53735 24.0236 8.53735 23.4173V20.8793C9.80995 20.6057 11.7485 20.5193 14.1011 21.4589L15.5592 20.0693L16.5527 22.5893C16.5527 22.5893 16.8191 21.6623 17.6795 21.7937C18.5399 21.9251 19.9331 22.3913 20.5289 21.9935C20.6895 21.9009 20.8781 21.8696 21.0599 21.9053Z" fill="#5B5B5B"/>
<path id="Vector_10" d="M18.2754 17.0908C18.7635 17.0908 19.1592 16.6952 19.1592 16.207C19.1592 15.7189 18.7635 15.3232 18.2754 15.3232C17.7873 15.3232 17.3916 15.7189 17.3916 16.207C17.3916 16.6952 17.7873 17.0908 18.2754 17.0908Z" fill="#5B5B5B"/>
</g>
</svg>