<svg width="36" height="44" viewBox="0 0 36 44" fill="none" xmlns="http://www.w3.org/2000/svg">
<g opacity="0.3">
<path opacity="0.3" d="M25.1406 8.8632C24.1564 8.86272 23.2126 8.47153 22.5166 7.77557C21.8207 7.07962 21.4295 6.13583 21.429 5.1516V0H4.84383C4.20758 -4.39308e-08 3.57757 0.125341 2.98977 0.368877C2.40198 0.612413 1.86788 0.969366 1.41807 1.41935C0.968259 1.86932 0.611536 2.40352 0.368218 2.9914C0.1249 3.57929 -0.000236101 4.20936 3.3442e-07 4.84561V34.0434C-0.000236101 34.6796 0.1249 35.3097 0.368218 35.8976C0.611536 36.4855 0.968259 37.0197 1.41807 37.4696C1.86788 37.9196 2.40198 38.2766 2.98977 38.5201C3.57757 38.7636 4.20758 38.889 4.84383 38.889H24.7518C25.388 38.889 26.0181 38.7636 26.6058 38.5201C27.1936 38.2766 27.7277 37.9196 28.1775 37.4696C28.6273 37.0197 28.9841 36.4855 29.2274 35.8976C29.4707 35.3097 29.5959 34.6796 29.5956 34.0434V8.865L25.1406 8.8632Z" fill="#5B5B5B"/>
</g>
<path d="M29.5956 8.8632H25.1406C24.1564 8.86272 23.2126 8.47153 22.5167 7.77557C21.8207 7.07962 21.4295 6.13583 21.429 5.1516V0L29.5956 8.8632Z" fill="#5B5B5B"/>
<path d="M33.1092 30.708H10.602C9.00545 30.708 7.71118 32.0023 7.71118 33.5988V40.3092C7.71118 41.9057 9.00545 43.2 10.602 43.2H33.1092C34.7057 43.2 36 41.9057 36 40.3092V33.5988C36 32.0023 34.7057 30.708 33.1092 30.708Z" fill="#5B5B5B"/>
<path d="M15.1596 38.4067V39.7171H13.8043V38.4067H15.1596Z" fill="white"/>
<path d="M19.1826 34.3047V38.0019C19.1826 38.5695 19.0284 39.0057 18.72 39.3105C18.5478 39.4692 18.3455 39.5917 18.125 39.6705C17.9045 39.7494 17.6704 39.783 17.4366 39.7695C17.1806 39.7832 16.9243 39.7461 16.6827 39.6602C16.4411 39.5743 16.2189 39.4414 16.029 39.2691C15.6822 38.9343 15.5082 38.4543 15.507 37.8291H16.8012C16.8012 38.3349 16.9938 38.5869 17.3754 38.5869C17.7084 38.5869 17.874 38.3925 17.874 38.0055V34.3083L19.1826 34.3047Z" fill="white"/>
<path d="M21.3534 37.8183V39.7173H20.0448V34.3047H22.1652C22.8072 34.3047 23.2968 34.4637 23.634 34.7817C23.8046 34.9489 23.9379 35.1504 24.0251 35.3728C24.1123 35.5953 24.1514 35.8337 24.1398 36.0723C24.1447 36.3868 24.0671 36.6971 23.9148 36.9723C23.7581 37.2406 23.525 37.4562 23.2452 37.5915C22.9082 37.7515 22.5381 37.8292 22.1652 37.8183H21.3534ZM22.8078 36.0723C22.8078 35.5923 22.545 35.3523 22.0194 35.3523H21.3534V36.7617H22.0194C22.545 36.7665 22.8078 36.5367 22.8078 36.0723Z" fill="white"/>
<path d="M28.9944 34.7399C29.4302 35.0677 29.7234 35.5503 29.8134 36.0881H28.4274C28.3336 35.8998 28.1857 35.7437 28.0026 35.6399C27.7964 35.5175 27.5601 35.4551 27.3204 35.4599C27.1343 35.4524 26.9488 35.4858 26.777 35.558C26.6053 35.6302 26.4516 35.7393 26.3268 35.8775C26.0628 36.1924 25.9283 36.5958 25.9506 37.0061C25.9506 37.5209 26.082 37.9164 26.3448 38.1924C26.4926 38.3357 26.6687 38.4465 26.8618 38.5178C27.0549 38.5891 27.2608 38.6192 27.4662 38.6063C27.7599 38.6117 28.0474 38.5213 28.2852 38.349C28.5281 38.1676 28.7035 37.9104 28.7838 37.6181H27.1296V36.6767H29.8782V37.9709C29.7732 38.2931 29.6069 38.592 29.3886 38.8511C29.1521 39.1304 28.858 39.3552 28.5264 39.5099C28.1515 39.6831 27.7423 39.7693 27.3294 39.7619C26.8272 39.7751 26.3304 39.6553 25.8894 39.4145C25.486 39.1877 25.1576 38.848 24.9444 38.4372C24.7154 37.9923 24.6009 37.4974 24.6114 36.9972C24.6024 36.5 24.7168 36.0083 24.9444 35.5661C25.1572 35.1562 25.4842 34.8168 25.8858 34.5888C26.3203 34.3499 26.8102 34.23 27.306 34.2413C27.9086 34.2151 28.5027 34.3905 28.9944 34.7399Z" fill="white"/>
<path d="M18.774 26.3539H10.8234C10.0451 26.353 9.29887 26.0434 8.74851 25.493C8.19814 24.9426 7.88853 24.1965 7.88757 23.4181V15.4675C7.88853 14.6892 8.19814 13.943 8.74851 13.3927C9.29887 12.8423 10.0451 12.5327 10.8234 12.5317H18.774C19.5521 12.5327 20.2981 12.8424 20.8482 13.3928C21.3983 13.9432 21.7075 14.6894 21.708 15.4675V23.4181C21.7075 24.1963 21.3983 24.9425 20.8482 25.4929C20.2981 26.0433 19.5521 26.353 18.774 26.3539ZM10.8234 13.8295C10.3891 13.83 9.97273 14.0027 9.66564 14.3098C9.35856 14.6169 9.18584 15.0333 9.18537 15.4675V23.4181C9.18584 23.8524 9.35856 24.2688 9.66564 24.5758C9.97273 24.8829 10.3891 25.0557 10.8234 25.0561H18.774C19.2081 25.0556 19.6243 24.8829 19.931 24.5757C20.2378 24.2686 20.4102 23.8522 20.4102 23.4181V15.4675C20.4102 15.0334 20.2378 14.6171 19.931 14.3099C19.6243 14.0028 19.2081 13.83 18.774 13.8295H10.8234Z" fill="#5B5B5B"/>
<path d="M21.06 21.9058V23.4178C21.0595 24.024 20.8185 24.6051 20.3899 25.0337C19.9613 25.4623 19.3801 25.7034 18.774 25.7038H10.8234C10.2171 25.7038 9.63567 25.463 9.20697 25.0343C8.77826 24.6056 8.53741 24.0241 8.53741 23.4178V20.8798C9.81001 20.6062 11.7486 20.5198 14.1012 21.4594L15.5592 20.0698L16.5528 22.5898C16.5528 22.5898 16.8192 21.6628 17.6796 21.7942C18.54 21.9256 19.9332 22.3918 20.529 21.994C20.6895 21.9014 20.8781 21.8701 21.06 21.9058Z" fill="#5B5B5B"/>
<path d="M18.2754 17.0913C18.7635 17.0913 19.1592 16.6956 19.1592 16.2075C19.1592 15.7194 18.7635 15.3237 18.2754 15.3237C17.7873 15.3237 17.3916 15.7194 17.3916 16.2075C17.3916 16.6956 17.7873 17.0913 18.2754 17.0913Z" fill="#5B5B5B"/>
</svg>
